<?xml version="1.0" encoding="UTF-8"?>
<svg width="55px" height="18px" viewBox="0 0 55 18" version="1.1" xmlns="http://www.w3.org/2000/svg" xmlns:xlink="http://www.w3.org/1999/xlink">
    <!-- Generator: sketchtool 56.3 (101010) - https://sketch.com -->
    <title>79B33D3B-5E6A-4FF7-B0A2-4E3F80241801</title>
    <desc>Created with sketchtool.</desc>
    <defs>
        <linearGradient x1="50%" y1="0%" x2="50%" y2="100%" id="linearGradient-1">
            <stop stop-color="#F9BE00" offset="0%"></stop>
            <stop stop-color="#F60000" offset="100%"></stop>
        </linearGradient>
        <linearGradient x1="50%" y1="0%" x2="50%" y2="99.1422086%" id="linearGradient-2">
            <stop stop-color="#54E42B" offset="0%"></stop>
            <stop stop-color="#10A8B7" offset="100%"></stop>
        </linearGradient>
        <linearGradient x1="50%" y1="0%" x2="50%" y2="99.5117188%" id="linearGradient-3">
            <stop stop-color="#FF2198" offset="0%"></stop>
            <stop stop-color="#8F21A1" offset="100%"></stop>
        </linearGradient>
    </defs>
    <g id="Symbols" stroke="none" stroke-width="1" fill="none" fill-rule="evenodd">
        <g id="Navigation/Desktop/Frontpage" fill-rule="nonzero">
            <g id="EH-imagotype-white">
                <g>
                    <g id="isotype">
                        <path d="M46.1718182,2.13162821e-14 C46.8693452,0.0884847886 47.560267,0.223783976 48.24,0.405 C51.4755355,1.32757588 53.8557894,4.10885496 54.2918182,7.47642857 C54.3392769,7.6409507 54.2533089,7.81464108 54.0945455,7.875 C52.0211024,9.18732986 49.6798858,10.0072042 47.2472727,10.2728571 C45.0820218,10.5209739 42.8894209,10.2432757 40.8518182,9.46285714 C39.7318182,9.01928571 38.6690909,8.44071429 37.5745455,7.93285714 C37.3136364,7.81714286 37.25,7.66285714 37.2881818,7.36071429 C37.8823926,3.67541841 40.7324465,0.780775334 44.3772727,0.160714286 L45.4018182,0.0128571429 L46.1718182,2.13162821e-14 Z M37.2181818,9.03857143 C42.9072727,13.3457143 48.5984848,13.3457143 54.2918182,9.03857143 C54.7372727,10.4335714 53.0954545,13.8728571 51.1927273,15.4285714 C48.4348946,17.6997931 44.5776169,18.0217448 41.4881818,16.2385714 C38.9427273,14.7535714 36.8809091,11.3014286 37.2181818,9.01928571 L37.2181818,9.03857143 Z" id="Combined-Shape" fill="url(#linearGradient-1)"></path>
                        <path d="M8.90909091,-4.97379915e-14 C9.54545455,0.102857143 10.15,0.167142857 10.7545455,0.327857143 C15.237086,1.49493355 17.9850324,6.05507592 16.9527273,10.6135714 C16.9527273,10.71 16.8954545,10.8 16.8572727,10.935 C12.0424817,6.83627349 4.99685057,6.86621337 0.216363636,11.0057143 C0.101148156,10.2153064 0.0289185393,9.41911147 -5.86197757e-14,8.62071429 C0.0132488983,4.65943597 2.70861965,1.2219729 6.52272727,0.302142857 C7.07636364,0.154285714 7.64909091,0.0964285714 8.20909091,-4.97379915e-14 L8.90909091,-4.97379915e-14 Z M16.5009091,12.0535714 C15.1723441,15.2854867 12.0487064,17.3918731 8.58454545,17.3918731 C5.12038446,17.3918731 1.99674677,15.2854867 0.668181818,12.0535714 C5.51591837,9.01051948 11.6531725,9.01051948 16.5009091,12.0535714 Z" id="Combined-Shape" fill="url(#linearGradient-2)"></path>
                        <path d="M35.7145455,9.25071429 C35.4389179,13.8094026 31.6987779,17.3639734 27.1777273,17.3639734 C22.6566766,17.3639734 18.9165367,13.8094026 18.6409091,9.25071429 C24.3180314,9.82284402 30.0374232,9.82284402 35.7145455,9.25071429 Z M18.66,8.17071429 C18.9353058,3.622447 22.6669928,0.0761521614 27.1777273,0.0761521614 C31.6884617,0.0761521614 35.4201487,3.622447 35.6954545,8.17071429 C30.0303084,7.61466735 24.3251462,7.61466735 18.66,8.17071429 Z" id="Combined-Shape" fill="url(#linearGradient-3)"></path>
                    </g>
                </g>
            </g>
        </g>
    </g>
</svg>
